<?xml version="1.0" encoding="UTF-8"?>
<svg width="20px" height="25px" viewBox="0 0 20 25" version="1.1" xmlns="http://www.w3.org/2000/svg" xmlns:xlink="http://www.w3.org/1999/xlink">
    <!-- Generator: Sketch 53.2 (72643) - https://sketchapp.com -->
    <title>Icons/Special Issue - White</title>
    <desc>Created with Sketch.</desc>
    <g id="Symbols" stroke="none" stroke-width="1" fill="none" fill-rule="evenodd">
        <g id="Sidebars/Desktop/Article-Sidebar" transform="translate(-23.000000, -69.000000)" fill="#FFFFFF">
            <g id="Submit" transform="translate(0.000000, 49.000000)">
                <g id="Type-and-icons" transform="translate(20.000000, 18.000000)">
                    <g id="Icons/PDF" transform="translate(0.000000, 3.000000)">
                        <g id="noun_PDF_117327" transform="translate(3.327586, -0.413793)">
                            <path d="M15,15.8703739 C14.6720239,16.0236709 14.190712,16.0410001 13.6743599,15.9223616 C13.1204448,15.7948362 12.5553168,15.5264554 12,15.1309937 C12.9903756,14.9026034 13.7587367,14.972809 14.4158101,15.3420547 C14.5716688,15.4295895 14.827322,15.6633119 15,15.8703739 L15,15.8703739 Z M10,15.1937805 C9.96315879,15.2038036 9.92708511,15.2133128 9.89101143,15.2233359 C9.64770595,15.2898998 9.41105236,15.3546646 9.18309739,15.4124904 L8.87557564,15.4908764 C8.25695037,15.6481624 7.62450964,15.8087895 7,16 C7.23742112,15.4248265 7.45795668,14.843485 7.67388709,14.2749936 C7.83378816,13.8542791 7.99701518,13.4243125 8.16587071,13 C8.25157769,13.1421228 8.34086645,13.2842457 8.43399284,13.4268825 C8.85766672,14.075302 9.39032918,14.6748908 10,15.1937805 L10,15.1937805 Z M8.98945842,8.77617497 C9.05535011,9.54704514 8.80521351,10.2885993 8.43840244,11 C7.98681354,10.120242 7.77612801,9.14890647 8.34103383,8.36463471 C8.48582767,8.16361098 8.60460059,8.05611913 8.68140428,8 C8.8001772,8.12228944 8.95672242,8.39534667 8.98945842,8.77617497 L8.98945842,8.77617497 Z M6,17 C5.84536957,17.276868 5.68767209,17.5360798 5.52588521,17.7807062 C5.13560311,18.3694985 4.49740115,19 4.1694824,19 C4.13727838,19 4.09817349,18.9948823 4.04117748,18.9344933 C4.00437289,18.8958547 3.99849437,18.868219 4.00028349,18.8306039 C4.01127375,18.6141249 4.29778732,18.2285056 4.71286141,17.8710338 C5.08959736,17.5465711 5.51540612,17.2584442 6,17 L6,17 Z M15.9984711,15.6348317 C15.9512319,14.9411898 14.8078486,14.4961563 14.7965208,14.4919718 C14.3544962,14.3319764 13.8743909,14.254194 13.3287291,14.254194 C12.7445046,14.254194 12.114728,14.3405915 11.305876,14.5335706 C10.5862001,14.0124778 9.964377,13.3601886 9.49993782,12.6379937 C9.2948326,12.3189874 9.11045483,12.0004734 8.94969669,11.6893437 C9.34207188,10.731094 9.69540236,9.70072329 9.63129192,8.54678684 C9.57947333,7.62152081 9.17095002,7 8.61540652,7 C8.23435912,7 7.90609437,7.28823797 7.63928888,7.85757564 C7.1632809,8.87219298 7.28836857,10.1703715 8.01093664,11.7193737 C7.7506386,12.3436021 7.50889885,12.9907222 7.27487163,13.617412 C6.98372346,14.3964668 6.68365766,15.2001363 6.34551123,15.9646685 C5.39711051,16.3479191 4.61814454,16.8126444 3.96884554,17.3832128 C3.54345106,17.7563714 3.03080854,18.3266937 3.0014045,18.9221229 C2.98718452,19.2024842 3.08118103,19.4597077 3.27254829,19.6657326 C3.47572537,19.8845571 3.73120307,19.9997539 4.01198753,20 C4.9394198,20 5.83190464,18.6986216 6.00109837,18.4377059 C6.34189598,17.913167 6.66076108,17.3280759 6.97335974,16.6531412 C7.76052028,16.3626879 8.59949942,16.1458325 9.41244875,15.9361154 L9.70359693,15.8605483 C9.92244009,15.8036884 10.1499599,15.740921 10.383264,15.6756921 C10.6303061,15.6075094 10.8843377,15.5368652 11.1424666,15.4696671 C11.9773485,16.0119287 12.8751357,16.3656417 13.7507494,16.4953611 C14.4882605,16.6048964 15.1433439,16.5413905 15.5865736,16.3053357 C15.9856972,16.0931571 16.0078708,15.7657818 15.9984711,15.6348317 L15.9984711,15.6348317 Z M18,21.6421127 C18,22.9186257 16.889149,22.9972793 16.6649764,23 L2.33380257,23 C1.07814296,23 1.00244197,21.8671906 1,21.6421127 L1,2.35788728 C1,1.08013761 2.11280453,1.00272072 2.33380257,1 L12.0149822,1 L12.0201103,1.0051941 L12.0201103,4.83176498 C12.0201103,5.59975041 12.4784676,7.05360496 14.2144622,7.05360496 L17.967766,7.05360496 L18,7.08625361 L18,21.6421127 L18,21.6421127 Z M17,6 L14.2610303,6 C13.0734581,6 13.001617,4.95209064 13,4.74480934 L13,2 L17,6 Z M19,6.66943053 L12.931836,0.522494557 L12.931836,0.493994854 L12.9028408,0.493994854 L12.4156232,0 L2.22742213,0 C1.45694423,0 0,0.471245091 0,2.25422652 L0,21.7460235 C0,22.5255154 0.465657119,24 2.22742213,24 L16.7728257,24 C17.5430558,23.99975 19,23.5287549 19,21.7457735 L19,6.66943053 Z" id="Shape" fill-rule="nonzero"></path>
                        </g>
                    </g>
                </g>
            </g>
        </g>
    </g>
</svg>